<?xml version="1.0" encoding="UTF-8"?>
<svg id="Capa_2" xmlns="http://www.w3.org/2000/svg" version="1.1" viewBox="0 0 311.8 145">
  <!-- Generator: Adobe Illustrator 29.2.1, SVG Export Plug-In . SVG Version: 2.1.0 Build 116)  -->
  <defs>
    <style>
      .st0 {
        fill: #00ff4e;
      }

      .st1 {
        fill: #141414;
      }

      .st2 {
        fill: #fff;
      }
    </style>
  </defs>
  <g id="Capa_1-2">
    <rect class="st1" width="311.8" height="145" rx="26.5" ry="26.5"/>
    <g>
      <polygon class="st2" points="50.5 44.4 40.2 68.4 30.4 44.4 23.3 44.4 36.6 75.3 28.3 92.4 35.4 92.4 41.8 78.5 57.6 44.4 50.5 44.4"/>
      <path class="st2" d="M83,49c-1.2-1.5-2.6-2.8-4.4-3.7-2-1.1-4.3-1.6-6.9-1.6s-5.9.8-8.4,2.3-4.5,3.7-5.9,6.3c-1.4,2.7-2.2,5.6-2.2,9s.7,6.3,2.2,9c1.4,2.7,3.4,4.8,5.9,6.3,2.5,1.5,5.3,2.3,8.4,2.3s4.9-.5,6.9-1.6c1.8-.9,3.2-2.1,4.3-3.7v4.6h6.5v-33.8h-6.5v4.6ZM80.5,69.6c-1.9,2.2-4.5,3.2-7.7,3.2s-4-.5-5.7-1.5c-1.7-1-3-2.4-3.9-4.1-.9-1.7-1.4-3.7-1.4-6s.5-4.2,1.4-5.9c.9-1.7,2.2-3.1,3.8-4.1,1.6-1,3.5-1.5,5.7-1.5s4,.5,5.6,1.5c1.6,1,2.8,2.3,3.7,4.1.9,1.8,1.4,3.8,1.4,6.1,0,3.4-1,6.1-2.9,8.3Z"/>
      <path class="st2" d="M119.9,48.9c-1.1-1.5-2.6-2.7-4.4-3.7-2.1-1-4.4-1.6-7.1-1.6s-5.8.7-8.3,2.2c-2.5,1.5-4.4,3.5-5.8,6.1-1.4,2.5-2.1,5.4-2.1,8.6s.7,6.1,2.1,8.7c1.4,2.6,3.4,4.6,5.8,6.1,2.4,1.5,5.2,2.2,8.3,2.2s4.9-.5,7-1.6c1.8-.9,3.3-2.2,4.4-3.7v4.5c0,3.1-1,5.5-3.1,7.4-2,1.8-4.8,2.7-8.2,2.7s-4.9-.5-6.8-1.4c-1.9-.9-3.5-2.3-4.9-4l-4.2,4.2c1.7,2.3,3.8,4.1,6.5,5.4,2.7,1.3,5.7,1.9,9.3,1.9s6.6-.7,9.3-2c2.7-1.4,4.8-3.3,6.3-5.7,1.5-2.4,2.2-5.3,2.2-8.5v-32.5h-6.4v4.5ZM118.9,66.4c-.9,1.6-2.1,2.9-3.7,3.8-1.6.9-3.4,1.4-5.6,1.4s-4-.5-5.6-1.4c-1.6-.9-2.9-2.2-3.8-3.9-.9-1.7-1.4-3.6-1.4-5.7s.5-4,1.4-5.7c.9-1.6,2.2-2.9,3.8-3.8,1.6-.9,3.5-1.4,5.6-1.4s3.9.5,5.5,1.4c1.6.9,2.8,2.2,3.7,3.8.9,1.6,1.3,3.5,1.3,5.7s-.4,4.1-1.3,5.7Z"/>
      <path class="st2" d="M157,49c-1.2-1.5-2.6-2.8-4.4-3.7-2-1.1-4.3-1.6-6.9-1.6s-5.9.8-8.4,2.3c-2.5,1.6-4.5,3.7-5.9,6.3-1.4,2.7-2.2,5.6-2.2,9s.7,6.3,2.2,9c1.4,2.7,3.4,4.8,5.9,6.3,2.5,1.5,5.3,2.3,8.4,2.3s4.9-.5,6.9-1.6c1.8-.9,3.2-2.1,4.3-3.7v4.6h6.5v-33.8h-6.5v4.6ZM154.5,69.6c-1.9,2.2-4.5,3.2-7.7,3.2s-4-.5-5.7-1.5c-1.7-1-3-2.4-3.9-4.1-.9-1.7-1.4-3.7-1.4-6s.5-4.2,1.4-5.9c.9-1.7,2.2-3.1,3.8-4.1,1.6-1,3.5-1.5,5.7-1.5s4,.5,5.6,1.5c1.6,1,2.8,2.3,3.7,4.1.9,1.8,1.4,3.8,1.4,6.1,0,3.4-1,6.1-2.9,8.3Z"/>
      <path class="st2" d="M225.2,46.5c-.9-.9-2-1.6-3.2-2.2-1.9-.9-4-1.4-6.3-1.4s-6,.8-8.5,2.3c-2.5,1.5-4.5,3.7-5.9,6.4,0,.2-.2.3-.3.5-.3-1-.7-2-1.2-2.9-1.1-2-2.7-3.5-4.8-4.6-2-1.1-4.4-1.7-7.1-1.7s-4.9.6-7,1.7c-.9.5-1.6,1-2.3,1.7v-19.7h-11v51.7h11v-19.7c0-1.2.3-2.2.8-3.1.5-.9,1.2-1.6,2.1-2.1.9-.5,1.9-.7,3.1-.7,1.7,0,3.1.6,4.3,1.7,1.1,1.1,1.7,2.6,1.7,4.3v19.7h11v-7.6c1.4,2.5,3.3,4.5,5.7,6,2.5,1.6,5.3,2.4,8.5,2.4s4.5-.5,6.4-1.4c1.2-.6,2.3-1.3,3.2-2.2v2.8h10.7v-34.6h-10.7v2.9ZM223.5,66.8c-1.4,1.5-3.3,2.3-5.6,2.3s-2.8-.3-4-1c-1.2-.7-2.1-1.6-2.8-2.9-.7-1.2-1-2.6-1-4.2s.3-3,1-4.2c.7-1.2,1.6-2.2,2.8-2.9,1.2-.7,2.5-1,4-1s2.9.3,4.1,1c1.2.7,2.1,1.6,2.7,2.8.6,1.2.9,2.6.9,4.2,0,2.4-.7,4.4-2.1,5.9Z"/>
      <path class="st2" d="M270.7,43.6h-11v19.9c0,1.8-.5,3.2-1.4,4.3-.9,1-2.2,1.6-3.8,1.6s-2-.2-2.8-.7c-.8-.5-1.4-1.2-1.9-2-.4-.9-.6-1.9-.6-3.1v-19.9h-11v20c0,3,.7,5.6,2.1,7.9,1.4,2.3,3.3,4.1,5.8,5.4,2.5,1.3,5.3,2,8.4,2s6.1-.7,8.5-2c2.4-1.3,4.3-3.1,5.7-5.4,1.4-2.3,2-5,2-8v-20Z"/>
      <path class="st2" d="M295.4,59.5c-1.3-.8-2.6-1.5-4.1-1.9-1.4-.5-2.8-.8-4-1.2-1.3-.3-2.3-.7-3.1-1.1-.8-.4-1.2-1-1.2-1.7s.3-1.1.9-1.5c.6-.4,1.5-.6,2.8-.6s2.6.3,4,.8c1.4.5,2.6,1.5,3.7,2.7l6.2-6.3c-1.5-2-3.5-3.5-6.1-4.5-2.5-1-5.2-1.5-8.1-1.5s-5.4.5-7.5,1.4c-2.1.9-3.7,2.2-4.8,3.9-1.1,1.6-1.7,3.6-1.7,5.8s.4,3.9,1.2,5.2c.8,1.3,1.9,2.4,3.1,3.1,1.3.8,2.6,1.4,4.1,1.8,1.4.5,2.8.9,4.1,1.2,1.3.4,2.4.7,3.2,1.1.8.4,1.2,1,1.2,1.9s-.3,1.3-1,1.6c-.7.4-1.6.6-2.8.6-1.9,0-3.6-.3-5.2-1-1.5-.7-2.9-1.6-4.1-2.9l-6.3,6.3c1.2,1.3,2.7,2.4,4.3,3.4,1.7,1,3.5,1.7,5.5,2.3,2,.5,4,.8,6.1.8,4.3,0,7.7-1,10.3-3,2.5-2,3.8-4.7,3.8-8.1s-.4-4-1.2-5.3c-.8-1.4-1.9-2.4-3.1-3.3Z"/>
    </g>
    <path class="st0" d="M281.3,117.8h-81.5c-8.5,0-15.4-6.9-15.4-15.4s6.9-15.4,15.4-15.4h81.5c8.5,0,15.4,6.9,15.4,15.4s-6.9,15.4-15.4,15.4ZM199.8,89c-7.4,0-13.4,6-13.4,13.4s6,13.4,13.4,13.4h81.5c7.4,0,13.4-6,13.4-13.4s-6-13.4-13.4-13.4h-81.5Z"/>
    <g>
      <path class="st0" d="M198.9,94.7h5.5c2.9,0,4.5,1.8,4.5,3.9v.5c0,1.2-.6,2.3-1.9,2.8v.4c1,.1,1.5.8,1.5,1.7v4.9h-2.7v-4.3c0-.7-.3-1.1-1.1-1.1h-3.1v5.4h-2.7v-14.2ZM204.2,101c1.3,0,2-.7,2-1.8v-.2c0-.9-.7-1.7-2-1.7h-2.6v3.7h2.6Z"/>
      <path class="st0" d="M211.6,94.7h9v2.6h-6.3v3.3h6.1v2.6h-6.1v3.3h6.6v2.6h-9.2v-14.2Z"/>
      <path class="st0" d="M223.3,103.4v-3.2c0-3.7,2-5.8,5.3-5.8s5.2,2,5.2,5.3v.4h-2.7v-.4c0-1.3-.6-2.8-2.5-2.8s-2.6,1.5-2.6,3.2v3.6c0,1.9.7,3.2,2.6,3.2s2.5-1.4,2.5-2.8v-.4h2.7v.4c0,3.4-1.8,5.3-5.2,5.3s-5.3-2-5.3-5.8Z"/>
      <path class="st0" d="M235.8,103.4v-3.2c0-3.7,2-5.8,5.2-5.8s5.2,2.2,5.2,5.8v3.2c0,3.8-2,5.8-5.2,5.8s-5.2-2-5.2-5.8ZM243.6,103.6v-3.5c0-1.8-.7-3.2-2.6-3.2s-2.6,1.4-2.6,3.2v3.5c0,1.9.6,3.2,2.6,3.2s2.6-1.3,2.6-3.2Z"/>
      <path class="st0" d="M248.8,94.7h5.5c2.9,0,4.5,1.8,4.5,3.9v.5c0,1.2-.6,2.3-1.9,2.8v.4c1,.1,1.5.8,1.5,1.7v4.9h-2.7v-4.3c0-.7-.3-1.1-1.1-1.1h-3.1v5.4h-2.7v-14.2ZM254,101c1.3,0,2-.7,2-1.8v-.2c0-.9-.7-1.7-2-1.7h-2.6v3.7h2.6Z"/>
      <path class="st0" d="M260.7,106.3h1.3v-9.1h-1.3v-2.6h5.2c3.5,0,5.2,1.6,5.2,5v4.2c0,3.4-1.7,5-5.2,5h-5.2v-2.6ZM265.8,106.4c1.9,0,2.5-.9,2.5-2.7v-3.9c0-1.6-.7-2.5-2.5-2.5h-1.1v9.1h1.1Z"/>
      <path class="st0" d="M272.9,104v-.6h2.7v.5c0,1.7,1,2.8,3.1,2.8s2.4-.8,2.4-1.8-.5-1.7-2.7-2c-2.8-.5-4.9-1.5-4.9-4.3h0c0-2.4,2-4.2,4.9-4.2s5.2,2.1,5.2,4.4v.7h-2.7v-.5c0-1.1-.9-2.1-2.5-2.1s-2.2.6-2.2,1.5.7,1.5,3.1,2c3,.5,4.6,1.7,4.6,4.2v.2c0,2.6-2,4.4-5.2,4.4s-5.7-2.2-5.7-5.2Z"/>
    </g>
  </g>
</svg>