<?xml version="1.0" encoding="UTF-8"?>
<svg id="Capa_2" data-name="Capa 2" xmlns="http://www.w3.org/2000/svg" width="398.23" height="66.56" viewBox="0 0 398.23 66.56">
  <g id="Capa_1-2" data-name="Capa 1">
    <g>
      <polygon points="27.19 17.87 16.9 41.84 7.12 17.87 0 17.87 13.27 48.73 4.98 65.85 12.1 65.85 18.51 51.97 34.31 17.87 27.19 17.87" fill="#fff"/>
      <path d="M59.65,22.47c-1.16-1.54-2.62-2.78-4.38-3.71-2.02-1.07-4.31-1.6-6.87-1.6-3.13,0-5.94.78-8.44,2.35s-4.46,3.68-5.91,6.34c-1.45,2.66-2.17,5.65-2.17,8.97s.72,6.31,2.17,8.97c1.45,2.66,3.42,4.76,5.91,6.3,2.49,1.54,5.3,2.31,8.44,2.31,2.56,0,4.86-.53,6.91-1.6,1.76-.92,3.2-2.15,4.34-3.68v4.57h6.48V17.87h-6.48v4.6ZM57.16,43.1c-1.95,2.16-4.51,3.24-7.69,3.24-2.14,0-4.03-.5-5.7-1.49-1.66-1-2.95-2.36-3.88-4.09-.93-1.73-1.39-3.74-1.39-6.02s.46-4.21,1.39-5.94c.93-1.73,2.21-3.1,3.84-4.09,1.64-1,3.52-1.49,5.66-1.49s4,.49,5.59,1.46c1.59.97,2.84,2.34,3.74,4.09.9,1.76,1.35,3.77,1.35,6.05,0,3.37-.97,6.13-2.92,8.29Z" fill="#fff"/>
      <path d="M96.6,22.37c-1.13-1.53-2.59-2.75-4.38-3.65-2.06-1.04-4.43-1.57-7.08-1.57-3.04,0-5.79.75-8.26,2.24-2.47,1.49-4.4,3.51-5.8,6.05-1.4,2.54-2.1,5.42-2.1,8.65s.71,6.13,2.14,8.72c1.42,2.59,3.36,4.62,5.8,6.09,2.44,1.47,5.21,2.21,8.29,2.21,2.61,0,4.94-.52,6.98-1.57,1.79-.92,3.26-2.15,4.41-3.71v4.49c0,3.08-1.02,5.54-3.06,7.37-2.04,1.83-4.77,2.74-8.19,2.74-2.61,0-4.87-.46-6.76-1.39-1.9-.93-3.54-2.27-4.91-4.02l-4.2,4.2c1.66,2.32,3.82,4.13,6.48,5.41,2.66,1.28,5.74,1.92,9.25,1.92s6.61-.68,9.29-2.03c2.68-1.35,4.77-3.25,6.26-5.69,1.49-2.44,2.24-5.28,2.24-8.51V17.87h-6.41v4.51ZM95.64,39.9c-.88,1.64-2.1,2.91-3.67,3.81-1.57.9-3.42,1.35-5.55,1.35s-3.95-.46-5.59-1.39c-1.64-.93-2.92-2.22-3.84-3.88-.93-1.66-1.39-3.56-1.39-5.69s.46-4.02,1.39-5.66c.93-1.64,2.19-2.92,3.81-3.84,1.61-.93,3.49-1.39,5.62-1.39s3.93.46,5.52,1.39c1.59.93,2.82,2.21,3.7,3.84.88,1.64,1.32,3.55,1.32,5.73s-.44,4.09-1.32,5.73Z" fill="#fff"/>
      <path d="M133.69,22.47c-1.16-1.54-2.62-2.78-4.38-3.71-2.02-1.07-4.31-1.6-6.87-1.6-3.13,0-5.94.78-8.44,2.35-2.49,1.57-4.46,3.68-5.91,6.34-1.45,2.66-2.17,5.65-2.17,8.97s.72,6.31,2.17,8.97c1.45,2.66,3.42,4.76,5.91,6.3,2.49,1.54,5.3,2.31,8.44,2.31,2.56,0,4.86-.53,6.91-1.6,1.76-.92,3.2-2.15,4.34-3.68v4.57h6.48V17.87h-6.48v4.6ZM131.19,43.1c-1.95,2.16-4.51,3.24-7.69,3.24-2.14,0-4.03-.5-5.7-1.49-1.66-1-2.95-2.36-3.88-4.09-.93-1.73-1.39-3.74-1.39-6.02s.46-4.21,1.39-5.94c.93-1.73,2.21-3.1,3.84-4.09,1.64-1,3.52-1.49,5.66-1.49s4,.49,5.59,1.46c1.59.97,2.84,2.34,3.74,4.09.9,1.76,1.35,3.77,1.35,6.05,0,3.37-.97,6.13-2.92,8.29Z" fill="#fff"/>
      <path d="M201.88,19.94c-.93-.89-2.01-1.63-3.24-2.22-1.88-.9-3.98-1.35-6.3-1.35-3.18,0-6.02.77-8.51,2.31-2.49,1.54-4.46,3.68-5.91,6.41-.09.17-.17.34-.25.51-.28-1.05-.68-2.03-1.21-2.93-1.14-1.97-2.73-3.51-4.77-4.63-2.04-1.11-4.41-1.67-7.12-1.67s-4.94.56-6.98,1.67c-.86.47-1.64,1.03-2.35,1.67V0h-10.96v51.68h10.96v-19.72c0-1.19.26-2.23.78-3.13.52-.9,1.23-1.6,2.14-2.1.9-.5,1.92-.75,3.06-.75,1.71,0,3.13.56,4.27,1.67,1.14,1.12,1.71,2.55,1.71,4.31v19.72h10.96v-7.65c1.42,2.48,3.32,4.47,5.69,5.98,2.51,1.59,5.34,2.38,8.47,2.38,2.37,0,4.5-.45,6.37-1.35,1.2-.58,2.26-1.3,3.17-2.16v2.8h10.75V17.08h-10.75v2.86ZM200.21,40.22c-1.4,1.52-3.26,2.28-5.59,2.28-1.47,0-2.79-.34-3.95-1.03-1.16-.69-2.09-1.65-2.78-2.88-.69-1.23-1.03-2.63-1.03-4.2s.34-2.97,1.03-4.2c.69-1.23,1.61-2.19,2.78-2.88,1.16-.69,2.48-1.03,3.95-1.03s2.87.34,4.06,1.03c1.19.69,2.09,1.64,2.7,2.85.62,1.21.93,2.6.93,4.16,0,2.42-.7,4.39-2.1,5.91Z" fill="#fff"/>
      <path d="M247.4,17.08h-10.96v19.86c0,1.8-.46,3.23-1.39,4.27-.93,1.04-2.2,1.57-3.81,1.57-1.09,0-2.04-.24-2.85-.71-.81-.47-1.42-1.15-1.85-2.03-.43-.88-.64-1.91-.64-3.1v-19.86h-10.96v20c0,2.99.69,5.64,2.06,7.94,1.38,2.3,3.31,4.12,5.8,5.45,2.49,1.33,5.3,1.99,8.44,1.99s6.05-.65,8.47-1.96c2.42-1.3,4.31-3.11,5.66-5.41,1.35-2.3,2.03-4.97,2.03-8.01v-20Z" fill="#fff"/>
      <path d="M272.14,32.92c-1.28-.83-2.63-1.47-4.06-1.92-1.42-.45-2.77-.84-4.02-1.17-1.26-.33-2.3-.71-3.13-1.14-.83-.43-1.25-1-1.25-1.71,0-.62.31-1.11.93-1.49.62-.38,1.54-.57,2.78-.57s2.6.27,3.95.82c1.35.55,2.57,1.46,3.67,2.74l6.19-6.34c-1.52-1.99-3.54-3.5-6.05-4.52-2.52-1.02-5.22-1.53-8.11-1.53s-5.39.47-7.47,1.42c-2.09.95-3.7,2.24-4.84,3.88-1.14,1.64-1.71,3.57-1.71,5.8s.4,3.87,1.21,5.2c.81,1.33,1.85,2.37,3.13,3.13,1.28.76,2.63,1.36,4.06,1.82,1.42.45,2.79.85,4.09,1.21,1.3.36,2.36.74,3.17,1.14.81.4,1.21,1.03,1.21,1.89,0,.71-.34,1.26-1.03,1.64-.69.38-1.63.57-2.81.57-1.9,0-3.62-.34-5.16-1.03-1.54-.69-2.91-1.65-4.09-2.88l-6.26,6.26c1.23,1.28,2.68,2.41,4.34,3.38,1.66.97,3.49,1.73,5.48,2.28,1.99.55,4.01.82,6.05.82,4.32,0,7.75-1.01,10.29-3.03,2.54-2.02,3.81-4.71,3.81-8.08,0-2.18-.4-3.95-1.21-5.3-.81-1.35-1.85-2.44-3.13-3.27Z" fill="#fff"/>
    </g>
    <path d="M382.81,49.74h-81.46c-8.5,0-15.42-6.92-15.42-15.42s6.92-15.42,15.42-15.42h81.46c8.5,0,15.42,6.92,15.42,15.42s-6.92,15.42-15.42,15.42ZM301.35,20.89c-7.4,0-13.43,6.02-13.43,13.43s6.02,13.43,13.43,13.43h81.46c7.4,0,13.43-6.02,13.43-13.43s-6.02-13.43-13.43-13.43h-81.46Z" fill="#33ff69"/>
    <g>
      <path d="M300.48,26.6h5.45c2.91,0,4.48,1.75,4.48,3.93v.49c0,1.16-.63,2.26-1.91,2.81v.37c.96.1,1.55.79,1.55,1.73v4.92h-2.69v-4.27c0-.65-.33-1.1-1.1-1.1h-3.09v5.37h-2.69v-14.24ZM305.73,32.9c1.3,0,1.99-.65,1.99-1.75v-.24c0-.94-.69-1.75-1.99-1.75h-2.56v3.74h2.56Z" fill="#33ff69"/>
      <path d="M313.12,26.6h8.99v2.56h-6.31v3.25h6.06v2.56h-6.06v3.3h6.55v2.56h-9.24v-14.24Z" fill="#33ff69"/>
      <path d="M324.89,35.3v-3.17c0-3.66,2.03-5.82,5.29-5.82s5.21,2.03,5.21,5.29v.37h-2.69v-.37c0-1.34-.57-2.85-2.52-2.85-1.79,0-2.6,1.46-2.6,3.17v3.58c0,1.85.69,3.17,2.6,3.17,2.07,0,2.52-1.38,2.52-2.85v-.37h2.69v.37c0,3.38-1.83,5.29-5.21,5.29s-5.29-2.03-5.29-5.82Z" fill="#33ff69"/>
      <path d="M337.35,35.3v-3.17c0-3.66,1.99-5.82,5.25-5.82s5.25,2.16,5.25,5.82v3.17c0,3.78-1.99,5.82-5.25,5.82s-5.25-2.03-5.25-5.82ZM345.16,35.47v-3.5c0-1.79-.73-3.21-2.56-3.21s-2.56,1.42-2.56,3.21v3.5c0,1.91.61,3.21,2.56,3.21s2.56-1.3,2.56-3.21Z" fill="#33ff69"/>
      <path d="M350.31,26.6h5.45c2.91,0,4.48,1.75,4.48,3.93v.49c0,1.16-.63,2.26-1.91,2.81v.37c.96.1,1.55.79,1.55,1.73v4.92h-2.69v-4.27c0-.65-.33-1.1-1.1-1.1h-3.09v5.37h-2.69v-14.24ZM355.56,32.9c1.3,0,1.99-.65,1.99-1.75v-.24c0-.94-.69-1.75-1.99-1.75h-2.56v3.74h2.56Z" fill="#33ff69"/>
      <path d="M362.22,38.25h1.34v-9.09h-1.34v-2.56h5.17c3.5,0,5.21,1.63,5.21,5.05v4.15c0,3.42-1.71,5.04-5.21,5.04h-5.17v-2.58ZM367.39,38.27c1.87,0,2.52-.85,2.52-2.73v-3.91c0-1.63-.65-2.48-2.52-2.48h-1.14v9.11h1.14Z" fill="#33ff69"/>
      <path d="M374.47,35.92v-.61h2.69v.49c0,1.71.98,2.81,3.05,2.81,1.63,0,2.4-.81,2.4-1.79s-.53-1.67-2.73-2.03c-2.85-.49-4.92-1.46-4.92-4.27v-.12c0-2.32,1.95-4.07,4.92-4.07,3.38,0,5.21,2.08,5.21,4.39v.73h-2.69v-.49c0-1.14-.94-2.12-2.52-2.12-1.34,0-2.2.61-2.2,1.55s.69,1.53,3.05,1.95c2.97.53,4.6,1.71,4.6,4.19v.24c0,2.65-1.97,4.35-5.17,4.35-3.74,0-5.7-2.24-5.7-5.21Z" fill="#33ff69"/>
    </g>
  </g>
</svg>