<?xml version="1.0" encoding="UTF-8"?>
<svg id="Capa_2" xmlns="http://www.w3.org/2000/svg" version="1.1" viewBox="0 0 398.2 66.6">
  <!-- Generator: Adobe Illustrator 29.2.1, SVG Export Plug-In . SVG Version: 2.1.0 Build 116)  -->
  <defs>
    <style>
      .st0 {
        fill: #fff;
      }

      .st1 {
        fill: #de1a6b;
      }
    </style>
  </defs>
  <g id="Capa_1-2">
    <g>
      <polygon class="st0" points="27.2 17.9 16.9 41.8 7.1 17.9 0 17.9 13.3 48.7 5 65.8 12.1 65.8 18.5 52 34.3 17.9 27.2 17.9"/>
      <path class="st0" d="M59.7,22.5c-1.2-1.5-2.6-2.8-4.4-3.7-2-1.1-4.3-1.6-6.9-1.6s-5.9.8-8.4,2.4-4.5,3.7-5.9,6.3-2.2,5.6-2.2,9,.7,6.3,2.2,9,3.4,4.8,5.9,6.3c2.5,1.5,5.3,2.3,8.4,2.3s4.9-.5,6.9-1.6c1.8-.9,3.2-2.2,4.3-3.7v4.6h6.5V17.9h-6.5s0,4.6,0,4.6ZM57.2,43.1c-2,2.2-4.5,3.2-7.7,3.2s-4-.5-5.7-1.5c-1.7-1-3-2.4-3.9-4.1s-1.4-3.7-1.4-6,.5-4.2,1.4-5.9c.9-1.7,2.2-3.1,3.8-4.1,1.6-1,3.5-1.5,5.7-1.5s4,.5,5.6,1.5,2.8,2.3,3.7,4.1c.9,1.8,1.3,3.8,1.3,6,0,3.4-1,6.1-2.9,8.3h0Z"/>
      <path class="st0" d="M96.6,22.4c-1.1-1.5-2.6-2.8-4.4-3.6-2.1-1-4.4-1.6-7.1-1.6s-5.8.8-8.3,2.2-4.4,3.5-5.8,6.1-2.1,5.4-2.1,8.7.7,6.1,2.1,8.7c1.4,2.6,3.4,4.6,5.8,6.1s5.2,2.2,8.3,2.2,4.9-.5,7-1.6c1.8-.9,3.3-2.2,4.4-3.7v4.5c0,3.1-1,5.5-3.1,7.4-2,1.8-4.8,2.7-8.2,2.7s-4.9-.5-6.8-1.4c-1.9-.9-3.5-2.3-4.9-4l-4.2,4.2c1.7,2.3,3.8,4.1,6.5,5.4,2.7,1.3,5.7,1.9,9.2,1.9s6.6-.7,9.3-2,4.8-3.2,6.3-5.7c1.5-2.4,2.2-5.3,2.2-8.5V17.9h-6.4v4.5h0ZM95.6,39.9c-.9,1.6-2.1,2.9-3.7,3.8s-3.4,1.3-5.6,1.3-3.9-.5-5.6-1.4-2.9-2.2-3.8-3.9c-.9-1.7-1.4-3.6-1.4-5.7s.5-4,1.4-5.7,2.2-2.9,3.8-3.8c1.6-.9,3.5-1.4,5.6-1.4s3.9.5,5.5,1.4,2.8,2.2,3.7,3.8c.9,1.6,1.3,3.5,1.3,5.7s-.4,4.1-1.3,5.7Z"/>
      <path class="st0" d="M133.7,22.5c-1.2-1.5-2.6-2.8-4.4-3.7-2-1.1-4.3-1.6-6.9-1.6s-5.9.8-8.4,2.4c-2.5,1.6-4.5,3.7-5.9,6.3s-2.2,5.6-2.2,9,.7,6.3,2.2,9,3.4,4.8,5.9,6.3c2.5,1.5,5.3,2.3,8.4,2.3s4.9-.5,6.9-1.6c1.8-.9,3.2-2.2,4.3-3.7v4.6h6.5V17.9h-6.5s0,4.6,0,4.6ZM131.2,43.1c-1.9,2.2-4.5,3.2-7.7,3.2s-4-.5-5.7-1.5c-1.7-1-2.9-2.4-3.9-4.1s-1.4-3.7-1.4-6,.5-4.2,1.4-5.9c.9-1.7,2.2-3.1,3.8-4.1,1.6-1,3.5-1.5,5.7-1.5s4,.5,5.6,1.5,2.8,2.3,3.7,4.1c.9,1.8,1.4,3.8,1.4,6,0,3.4-1,6.1-2.9,8.3h0Z"/>
      <path class="st0" d="M201.9,19.9c-.9-.9-2-1.6-3.2-2.2-1.9-.9-4-1.4-6.3-1.4s-6,.8-8.5,2.3c-2.5,1.5-4.5,3.7-5.9,6.4,0,.2-.2.3-.2.5-.3-1-.7-2-1.2-2.9-1.1-2-2.7-3.5-4.8-4.6-2-1.1-4.4-1.7-7.1-1.7s-4.9.6-7,1.7c-.9.5-1.6,1-2.4,1.7V0h-11v51.7h11v-19.7c0-1.2.3-2.2.8-3.1s1.2-1.6,2.1-2.1c.9-.5,1.9-.8,3.1-.8,1.7,0,3.1.6,4.3,1.7,1.1,1.1,1.7,2.5,1.7,4.3v19.7h11v-7.7c1.4,2.5,3.3,4.5,5.7,6,2.5,1.6,5.3,2.4,8.5,2.4s4.5-.5,6.4-1.3c1.2-.6,2.3-1.3,3.2-2.2v2.8h10.8V17.1h-10.8v2.9h0ZM200.2,40.2c-1.4,1.5-3.3,2.3-5.6,2.3s-2.8-.3-3.9-1-2.1-1.7-2.8-2.9-1-2.6-1-4.2.3-3,1-4.2c.7-1.2,1.6-2.2,2.8-2.9,1.2-.7,2.5-1,3.9-1s2.9.3,4.1,1,2.1,1.6,2.7,2.9c.6,1.2.9,2.6.9,4.2,0,2.4-.7,4.4-2.1,5.9h0Z"/>
      <path class="st0" d="M247.4,17.1h-11v19.9c0,1.8-.5,3.2-1.4,4.3s-2.2,1.6-3.8,1.6-2-.2-2.9-.7c-.8-.5-1.4-1.2-1.9-2-.4-.9-.6-1.9-.6-3.1v-19.9h-11v20c0,3,.7,5.6,2.1,7.9,1.4,2.3,3.3,4.1,5.8,5.5s5.3,2,8.4,2,6.1-.7,8.5-2c2.4-1.3,4.3-3.1,5.7-5.4s2-5,2-8v-20h0Z"/>
      <path class="st0" d="M272.1,32.9c-1.3-.8-2.6-1.5-4.1-1.9-1.4-.5-2.8-.8-4-1.2-1.3-.3-2.3-.7-3.1-1.1-.8-.4-1.2-1-1.2-1.7s.3-1.1.9-1.5,1.5-.6,2.8-.6,2.6.3,4,.8,2.6,1.5,3.7,2.7l6.2-6.3c-1.5-2-3.5-3.5-6-4.5-2.5-1-5.2-1.5-8.1-1.5s-5.4.5-7.5,1.4c-2.1,1-3.7,2.2-4.8,3.9-1.1,1.6-1.7,3.6-1.7,5.8s.4,3.9,1.2,5.2c.8,1.3,1.9,2.4,3.1,3.1,1.3.8,2.6,1.4,4.1,1.8,1.4.5,2.8.8,4.1,1.2s2.4.7,3.2,1.1c.8.4,1.2,1,1.2,1.9s-.3,1.3-1,1.6-1.6.6-2.8.6c-1.9,0-3.6-.3-5.2-1-1.5-.7-2.9-1.7-4.1-2.9l-6.3,6.3c1.2,1.3,2.7,2.4,4.3,3.4s3.5,1.7,5.5,2.3,4,.8,6,.8c4.3,0,7.8-1,10.3-3s3.8-4.7,3.8-8.1-.4-4-1.2-5.3-1.9-2.4-3.1-3.3h0Z"/>
    </g>
    <path class="st1" d="M382.8,49.7h-81.5c-8.5,0-15.4-6.9-15.4-15.4s6.9-15.4,15.4-15.4h81.5c8.5,0,15.4,6.9,15.4,15.4s-6.9,15.4-15.4,15.4ZM301.4,20.9c-7.4,0-13.4,6-13.4,13.4s6,13.4,13.4,13.4h81.5c7.4,0,13.4-6,13.4-13.4s-6-13.4-13.4-13.4h-81.5Z"/>
    <g>
      <path class="st1" d="M300.5,26.6h5.5c2.9,0,4.5,1.8,4.5,3.9v.5c0,1.2-.6,2.3-1.9,2.8v.4c1,0,1.5.8,1.5,1.7v4.9h-2.7v-4.3c0-.7-.3-1.1-1.1-1.1h-3.1v5.4h-2.7v-14.2h0ZM305.7,32.9c1.3,0,2-.7,2-1.8v-.2c0-.9-.7-1.8-2-1.8h-2.6v3.7h2.6Z"/>
      <path class="st1" d="M313.1,26.6h9v2.6h-6.3v3.2h6.1v2.6h-6.1v3.3h6.5v2.6h-9.2v-14.2h0Z"/>
      <path class="st1" d="M324.9,35.3v-3.2c0-3.7,2-5.8,5.3-5.8s5.2,2,5.2,5.3v.4h-2.7v-.4c0-1.3-.6-2.9-2.5-2.9s-2.6,1.5-2.6,3.2v3.6c0,1.8.7,3.2,2.6,3.2s2.5-1.4,2.5-2.8v-.4h2.7v.4c0,3.4-1.8,5.3-5.2,5.3s-5.3-2-5.3-5.8h0Z"/>
      <path class="st1" d="M337.4,35.3v-3.2c0-3.7,2-5.8,5.2-5.8s5.2,2.2,5.2,5.8v3.2c0,3.8-2,5.8-5.2,5.8s-5.2-2-5.2-5.8ZM345.2,35.5v-3.5c0-1.8-.7-3.2-2.6-3.2s-2.6,1.4-2.6,3.2v3.5c0,1.9.6,3.2,2.6,3.2s2.6-1.3,2.6-3.2Z"/>
      <path class="st1" d="M350.3,26.6h5.5c2.9,0,4.5,1.8,4.5,3.9v.5c0,1.2-.6,2.3-1.9,2.8v.4c1,0,1.5.8,1.5,1.7v4.9h-2.7v-4.3c0-.7-.3-1.1-1.1-1.1h-3.1v5.4h-2.7v-14.2h0ZM355.6,32.9c1.3,0,2-.7,2-1.8v-.2c0-.9-.7-1.8-2-1.8h-2.6v3.7h2.6Z"/>
      <path class="st1" d="M362.2,38.2h1.3v-9.1h-1.3v-2.6h5.2c3.5,0,5.2,1.6,5.2,5.1v4.2c0,3.4-1.7,5-5.2,5h-5.2v-2.6h0ZM367.4,38.3c1.9,0,2.5-.8,2.5-2.7v-3.9c0-1.6-.6-2.5-2.5-2.5h-1.1v9.1h1.1Z"/>
      <path class="st1" d="M374.5,35.9v-.6h2.7v.5c0,1.7,1,2.8,3,2.8s2.4-.8,2.4-1.8-.5-1.7-2.7-2c-2.9-.5-4.9-1.5-4.9-4.3h0c0-2.4,2-4.2,4.9-4.2s5.2,2.1,5.2,4.4v.7h-2.7v-.5c0-1.1-.9-2.1-2.5-2.1s-2.2.6-2.2,1.5.7,1.5,3,2c3,.5,4.6,1.7,4.6,4.2v.2c0,2.7-2,4.3-5.2,4.3s-5.7-2.2-5.7-5.2h0Z"/>
    </g>
  </g>
</svg>