<?xml version="1.0" encoding="UTF-8"?>
<svg id="Capa_2" data-name="Capa 2" xmlns="http://www.w3.org/2000/svg" width="232.72" height="45.27" viewBox="0 0 232.72 45.27">
  <g id="Capa_1-2" data-name="Capa 1">
    <g>
      <g>
        <path d="M77.93,32.22v-10.89c0-2.24-.83-2.94-2.74-2.94h-3.24c-2.97,0-3.71.73-3.71,2.94v10.89h-4.38v-10.89c0-2.2-.67-2.94-3.74-2.94h-3.17c-1.97,0-2.74.7-2.74,2.94v10.89h-4.84v-11.62c0-4.44,1.7-6.48,6.48-6.48h4.38c3.67,0,5.14,1.04,5.81,3.17.63-2.14,2.2-3.17,5.78-3.17h4.51c4.78,0,6.48,2.04,6.48,6.48v11.62h-4.88Z"/>
        <path d="M91.18,23.53c0,2,.8,2.67,2.84,2.67h11.12v-12.09h4.84v17.77c0,4.04-1.9,5.75-6.41,5.75h-7.25v-4.08h6.81c1.37,0,2-.43,2-1.94v-1.47h-11.42c-5.41,0-7.45-2.04-7.45-6.41v-9.62h4.91v9.42Z"/>
        <path d="M122.54,32.22c-6.71,0-8.68-2.07-8.68-7.82V8.27h4.98v5.85h10.05c6.75,0,8.72,2.07,8.72,7.85v2.44c0,5.75-1.97,7.82-8.72,7.82h-6.35ZM132.63,22.13c0-3.14-.77-3.74-3.91-3.74h-9.89v5.91c0,2.97.73,3.71,3.87,3.71h6.01c3.14,0,3.91-.73,3.91-3.74v-2.14Z" fill="#6a61f6"/>
        <path d="M141.21,32.22v-10.49c0-5.41,2.37-7.62,8.48-7.62h3.24v4.04h-3.11c-2.77,0-3.64.73-3.64,3.61v10.45h-4.98Z" fill="#6a61f6"/>
        <path d="M160.15,32.22c-5.21,0-6.61-1.84-6.61-4.78v-1.7c0-3.04,1.27-4.78,6.28-4.78h13.39v-.4c0-2.3-.87-2.91-3.07-2.91h-4.94v-3.54h4.94c5.78,0,8.05,2.07,8.05,6.68v4.41c0,5.24-1.84,7.01-8.25,7.01h-9.79ZM173.2,24.03h-12.86c-1.17,0-1.87.4-1.87,1.84v1.24c0,1.27.77,1.7,2.04,1.7h9.35c2.34,0,3.34-.53,3.34-3.24v-1.54Z" fill="#6a61f6"/>
        <path d="M200.32,32.22v-10.09c0-3.01-.83-3.74-4.04-3.74h-5.41c-3.14,0-4.04.73-4.04,3.74v10.09h-4.98v-10.25c0-5.78,1.97-7.85,8.68-7.85h6.05c6.75,0,8.72,2.07,8.72,7.85v10.25h-4.98Z" fill="#6a61f6"/>
        <path d="M217.69,32.22c-6.78,0-8.75-2.07-8.75-7.82v-2.44c0-5.78,1.97-7.85,8.75-7.85h10.05v-5.85h4.98v16.13c0,5.75-1.97,7.82-8.72,7.82h-6.31ZM213.91,24.27c0,3.17.87,3.74,4.41,3.74h5.54c3.14,0,3.87-.7,3.87-3.71v-5.91h-9.45c-3.51,0-4.38.5-4.38,3.74v2.14Z" fill="#6a61f6"/>
      </g>
      <path d="M42.25,19.62h-12.35l8.73-8.73c1.18-1.18,1.18-3.08,0-4.26h0c-1.18-1.18-3.08-1.18-4.26,0l-8.73,8.73V3.01c0-1.66-1.35-3.01-3.01-3.01h0c-1.66,0-3.01,1.35-3.01,3.01v12.35L10.89,6.63c-1.18-1.18-3.08-1.18-4.26,0h0c-1.18,1.18-1.18,3.08,0,4.26l8.73,8.73H3.01c-1.66,0-3.01,1.35-3.01,3.01s1.35,3.01,3.01,3.01h12.35l-4.05,4.05c-1.18,1.18-1.18,3.08,0,4.26h0c1.18,1.18,3.08,1.18,4.26,0l4.05-4.05v12.35c0,1.66,1.35,3.01,3.01,3.01s3.01-1.35,3.01-3.01v-12.35l4.05,4.05c1.18,1.18,3.08,1.18,4.26,0h0c1.18-1.18,1.18-3.08,0-4.26l-4.05-4.05h12.35c1.66,0,3.01-1.35,3.01-3.01s-1.35-3.01-3.01-3.01Z" fill="#ffe164"/>
    </g>
  </g>
</svg>