<?xml version="1.0" encoding="UTF-8"?>
<svg id="Capa_2" data-name="Capa 2" xmlns="http://www.w3.org/2000/svg" width="277.3" height="66.6" viewBox="0 0 277.3 66.6">
  <g id="Capa_2-2" data-name="Capa 2">
    <g id="Capa_1-2" data-name="Capa 1-2">
      <g>
        <polygon points="27.2 17.9 16.9 41.8 7.1 17.9 0 17.9 13.3 48.7 5 65.8 12.1 65.8 18.5 52 34.3 17.9 27.2 17.9" fill="#fff"/>
        <path d="M59.7,22.5c-1.2-1.5-2.6-2.8-4.4-3.7-2-1.1-4.3-1.6-6.9-1.6s-5.9.8-8.4,2.4-4.5,3.7-5.9,6.3-2.2,5.6-2.2,9,.7,6.3,2.2,9,3.4,4.8,5.9,6.3,5.3,2.3,8.4,2.3,4.9-.5,6.9-1.6c1.8-.9,3.2-2.2,4.3-3.7v4.6h6.5V17.9h-6.5v4.6h.1ZM57.2,43.1c-2,2.2-4.5,3.2-7.7,3.2s-4-.5-5.7-1.5-3-2.4-3.9-4.1-1.4-3.7-1.4-6,.5-4.2,1.4-5.9c.9-1.7,2.2-3.1,3.8-4.1s3.5-1.5,5.7-1.5,4,.5,5.6,1.5,2.8,2.3,3.7,4.1c.9,1.8,1.3,3.8,1.3,6,0,3.4-1,6.1-2.9,8.3h.1Z" fill="#fff"/>
        <path d="M96.6,22.4c-1.1-1.5-2.6-2.8-4.4-3.6-2.1-1-4.4-1.6-7.1-1.6s-5.8.8-8.3,2.2-4.4,3.5-5.8,6.1-2.1,5.4-2.1,8.7.7,6.1,2.1,8.7c1.4,2.6,3.4,4.6,5.8,6.1s5.2,2.2,8.3,2.2,4.9-.5,7-1.6c1.8-.9,3.3-2.2,4.4-3.7v4.5c0,3.1-1,5.5-3.1,7.4-2,1.8-4.8,2.7-8.2,2.7s-4.9-.5-6.8-1.4-3.5-2.3-4.9-4l-4.2,4.2c1.7,2.3,3.8,4.1,6.5,5.4s5.7,1.9,9.2,1.9,6.6-.7,9.3-2,4.8-3.2,6.3-5.7c1.5-2.4,2.2-5.3,2.2-8.5V17.9h-6.4v4.5h.2ZM95.6,39.9c-.9,1.6-2.1,2.9-3.7,3.8s-3.4,1.3-5.6,1.3-3.9-.5-5.6-1.4-2.9-2.2-3.8-3.9-1.4-3.6-1.4-5.7.5-4,1.4-5.7,2.2-2.9,3.8-3.8c1.6-.9,3.5-1.4,5.6-1.4s3.9.5,5.5,1.4,2.8,2.2,3.7,3.8c.9,1.6,1.3,3.5,1.3,5.7s-.4,4.1-1.3,5.7l.1.2Z" fill="#fff"/>
        <path d="M133.7,22.5c-1.2-1.5-2.6-2.8-4.4-3.7-2-1.1-4.3-1.6-6.9-1.6s-5.9.8-8.4,2.4-4.5,3.7-5.9,6.3-2.2,5.6-2.2,9,.7,6.3,2.2,9,3.4,4.8,5.9,6.3,5.3,2.3,8.4,2.3,4.9-.5,6.9-1.6c1.8-.9,3.2-2.2,4.3-3.7v4.6h6.5V17.9h-6.5v4.6h.1ZM131.2,43.1c-1.9,2.2-4.5,3.2-7.7,3.2s-4-.5-5.7-1.5-2.9-2.4-3.9-4.1-1.4-3.7-1.4-6,.5-4.2,1.4-5.9c.9-1.7,2.2-3.1,3.8-4.1,1.6-1,3.5-1.5,5.7-1.5s4,.5,5.6,1.5c1.6,1,2.8,2.3,3.7,4.1.9,1.8,1.4,3.8,1.4,6,0,3.4-1,6.1-2.9,8.3h0Z" fill="#fff"/>
        <path d="M201.9,19.9c-.9-.9-2-1.6-3.2-2.2-1.9-.9-4-1.4-6.3-1.4s-6,.8-8.5,2.3-4.5,3.7-5.9,6.4c0,.2-.2.3-.2.5-.3-1-.7-2-1.2-2.9-1.1-2-2.7-3.5-4.8-4.6-2-1.1-4.4-1.7-7.1-1.7s-4.9.6-7,1.7c-.9.5-1.6,1-2.4,1.7V0h-11v51.7h11v-19.7c0-1.2.3-2.2.8-3.1s1.2-1.6,2.1-2.1c.9-.5,1.9-.8,3.1-.8,1.7,0,3.1.6,4.3,1.7,1.1,1.1,1.7,2.5,1.7,4.3v19.7h11v-7.7c1.4,2.5,3.3,4.5,5.7,6,2.5,1.6,5.3,2.4,8.5,2.4s4.5-.5,6.4-1.3c1.2-.6,2.3-1.3,3.2-2.2v2.8h10.8V17.1h-10.8v2.9h0l-.2-.1ZM200.2,40.2c-1.4,1.5-3.3,2.3-5.6,2.3s-2.8-.3-3.9-1-2.1-1.7-2.8-2.9-1-2.6-1-4.2.3-3,1-4.2,1.6-2.2,2.8-2.9c1.2-.7,2.5-1,3.9-1s2.9.3,4.1,1,2.1,1.6,2.7,2.9c.6,1.2.9,2.6.9,4.2,0,2.4-.7,4.4-2.1,5.9h0v-.1Z" fill="#fff"/>
        <path d="M247.4,17.1h-11v19.9c0,1.8-.5,3.2-1.4,4.3s-2.2,1.6-3.8,1.6-2-.2-2.9-.7c-.8-.5-1.4-1.2-1.9-2-.4-.9-.6-1.9-.6-3.1v-19.9h-11v20c0,3,.7,5.6,2.1,7.9,1.4,2.3,3.3,4.1,5.8,5.5s5.3,2,8.4,2,6.1-.7,8.5-2,4.3-3.1,5.7-5.4,2-5,2-8v-20h0l.1-.1Z" fill="#fff"/>
        <path d="M272.1,32.9c-1.3-.8-2.6-1.5-4.1-1.9-1.4-.5-2.8-.8-4-1.2-1.3-.3-2.3-.7-3.1-1.1-.8-.4-1.2-1-1.2-1.7s.3-1.1.9-1.5,1.5-.6,2.8-.6,2.6.3,4,.8,2.6,1.5,3.7,2.7l6.2-6.3c-1.5-2-3.5-3.5-6-4.5s-5.2-1.5-8.1-1.5-5.4.5-7.5,1.4c-2.1,1-3.7,2.2-4.8,3.9-1.1,1.6-1.7,3.6-1.7,5.8s.4,3.9,1.2,5.2c.8,1.3,1.9,2.4,3.1,3.1,1.3.8,2.6,1.4,4.1,1.8,1.4.5,2.8.8,4.1,1.2s2.4.7,3.2,1.1c.8.4,1.2,1,1.2,1.9s-.3,1.3-1,1.6-1.6.6-2.8.6c-1.9,0-3.6-.3-5.2-1-1.5-.7-2.9-1.7-4.1-2.9l-6.3,6.3c1.2,1.3,2.7,2.4,4.3,3.4s3.5,1.7,5.5,2.3,4,.8,6,.8c4.3,0,7.8-1,10.3-3s3.8-4.7,3.8-8.1-.4-4-1.2-5.3-1.9-2.4-3.1-3.3h-.2Z" fill="#fff"/>
      </g>
    </g>
  </g>
</svg>