<?xml version="1.0" encoding="UTF-8"?>
<svg id="Capa_2" data-name="Capa 2" xmlns="http://www.w3.org/2000/svg" width="249.45" height="249.45" viewBox="0 0 249.45 249.45">
  <g id="Capa_1-2" data-name="Capa 1">
    <rect x="0" y="0" width="249.45" height="249.45" rx="61.39" ry="61.39" fill="#6a61f6"/>
    <g>
      <g>
        <path d="M63.32,220.84v-11.34c0-2.33-.87-3.06-2.85-3.06h-3.37c-3.09,0-3.86.77-3.86,3.06v11.34h-4.55v-11.34c0-2.3-.7-3.06-3.89-3.06h-3.3c-2.05,0-2.85.73-2.85,3.06v11.34h-5.04v-12.1c0-4.62,1.77-6.75,6.75-6.75h4.55c3.83,0,5.36,1.08,6.05,3.3.66-2.23,2.29-3.3,6.02-3.3h4.69c4.97,0,6.75,2.12,6.75,6.75v12.1h-5.08Z" fill="#fff"/>
        <path d="M77.12,211.8c0,2.09.83,2.78,2.96,2.78h11.58v-12.59h5.04v18.5c0,4.21-1.98,5.98-6.68,5.98h-7.55v-4.24h7.09c1.43,0,2.09-.45,2.09-2.02v-1.53h-11.89c-5.63,0-7.75-2.12-7.75-6.68v-10.01h5.11v9.81Z" fill="#fff"/>
        <path d="M109.77,220.84c-6.99,0-9.04-2.16-9.04-8.14v-16.8h5.18v6.09h10.47c7.02,0,9.08,2.16,9.08,8.17v2.54c0,5.98-2.05,8.14-9.08,8.14h-6.61ZM120.27,210.34c0-3.27-.8-3.89-4.07-3.89h-10.29v6.15c0,3.09.76,3.86,4.03,3.86h6.26c3.27,0,4.07-.77,4.07-3.89v-2.23Z" fill="#fff"/>
        <path d="M129.2,220.84v-10.92c0-5.63,2.47-7.93,8.83-7.93h3.37v4.21h-3.23c-2.89,0-3.79.77-3.79,3.76v10.88h-5.18Z" fill="#fff"/>
        <path d="M148.91,220.84c-5.42,0-6.89-1.91-6.89-4.97v-1.77c0-3.16,1.32-4.97,6.54-4.97h13.94v-.42c0-2.4-.9-3.03-3.2-3.03h-5.15v-3.69h5.15c6.02,0,8.38,2.16,8.38,6.95v4.59c0,5.46-1.91,7.3-8.59,7.3h-10.19ZM162.51,212.32h-13.39c-1.22,0-1.95.42-1.95,1.91v1.29c0,1.32.8,1.77,2.12,1.77h9.74c2.43,0,3.48-.56,3.48-3.37v-1.6Z" fill="#fff"/>
        <path d="M190.74,220.84v-10.5c0-3.13-.87-3.89-4.21-3.89h-5.63c-3.27,0-4.21.77-4.21,3.89v10.5h-5.18v-10.68c0-6.02,2.05-8.17,9.04-8.17h6.29c7.02,0,9.08,2.16,9.08,8.17v10.68h-5.18Z" fill="#fff"/>
        <path d="M208.82,220.84c-7.06,0-9.11-2.16-9.11-8.14v-2.54c0-6.02,2.05-8.17,9.11-8.17h10.47v-6.09h5.18v16.8c0,5.98-2.05,8.14-9.08,8.14h-6.57ZM204.89,212.56c0,3.3.9,3.89,4.59,3.89h5.77c3.27,0,4.03-.73,4.03-3.86v-6.15h-9.84c-3.65,0-4.56.52-4.56,3.89v2.23Z" fill="#fff"/>
      </g>
      <path d="M196.36,92.53h-45.79l32.38-32.37c4.36-4.36,4.36-11.43,0-15.8h0c-4.36-4.36-11.43-4.36-15.8,0l-32.37,32.37V30.94c0-6.17-5-11.17-11.17-11.17h0c-6.17,0-11.17,5-11.17,11.17v45.79l-32.37-32.37c-4.36-4.36-11.44-4.36-15.8,0h0c-4.36,4.36-4.36,11.44,0,15.8l32.38,32.37h-45.79c-6.17,0-11.17,5-11.17,11.17s5,11.17,11.17,11.17h45.79l-15,15c-4.36,4.36-4.36,11.43,0,15.8h0c4.36,4.36,11.44,4.36,15.8,0l15-15v45.79c0,6.17,5,11.17,11.17,11.17s11.17-5,11.17-11.17v-45.79l15,15c4.36,4.36,11.44,4.36,15.8,0h0c4.36-4.36,4.36-11.43,0-15.8l-15-15h45.79c6.17,0,11.17-5,11.17-11.17s-5-11.17-11.17-11.17Z" fill="#fff"/>
    </g>
  </g>
</svg>