<?xml version="1.0" encoding="UTF-8"?>
<svg id="Capa_2" data-name="Capa 2" xmlns="http://www.w3.org/2000/svg" width="59.07" height="59.07" viewBox="0 0 59.07 59.07">
  <g id="Capa_1-2" data-name="Capa 1">
    <rect width="59.07" height="59.07" rx="7" ry="7" fill="#6a61f6"/>
    <path d="M49.16,26.03h-12.35l8.73-8.73c1.18-1.18,1.18-3.08,0-4.26h0c-1.18-1.18-3.08-1.18-4.26,0l-8.73,8.73v-12.35c0-1.66-1.35-3.01-3.01-3.01h0c-1.66,0-3.01,1.35-3.01,3.01v12.35l-8.73-8.73c-1.18-1.18-3.08-1.18-4.26,0h0c-1.18,1.18-1.18,3.08,0,4.26l8.73,8.73h-12.35c-1.66,0-3.01,1.35-3.01,3.01s1.35,3.01,3.01,3.01h12.35l-4.05,4.05c-1.18,1.18-1.18,3.08,0,4.26h0c1.18,1.18,3.08,1.18,4.26,0l4.05-4.05v12.35c0,1.66,1.35,3.01,3.01,3.01s3.01-1.35,3.01-3.01v-12.35l4.05,4.05c1.18,1.18,3.08,1.18,4.26,0h0c1.18-1.18,1.18-3.08,0-4.26l-4.05-4.05h12.35c1.66,0,3.01-1.35,3.01-3.01s-1.35-3.01-3.01-3.01Z" fill="#ffe164"/>
  </g>
</svg>