<?xml version="1.0" encoding="UTF-8"?>
<svg id="Capa_2" xmlns="http://www.w3.org/2000/svg" version="1.1" viewBox="0 0 59.1 59.1">
  <!-- Generator: Adobe Illustrator 29.2.1, SVG Export Plug-In . SVG Version: 2.1.0 Build 116)  -->
  <defs>
    <style>
      .st0 {
        fill: #00ff4e;
      }

      .st1 {
        fill: #1e1e33;
      }
    </style>
  </defs>
  <g id="Capa_1-2">
    <rect class="st1" width="59.1" height="59.1" rx="7" ry="7"/>
    <path class="st0" d="M49.2,26h-12.4l8.7-8.7c1.2-1.2,1.2-3.1,0-4.3h0c-1.2-1.2-3.1-1.2-4.3,0l-8.7,8.7v-12.4c0-1.7-1.4-3-3-3h0c-1.7,0-3,1.3-3,3v12.4l-8.7-8.7c-1.2-1.2-3.1-1.2-4.3,0h0c-1.2,1.2-1.2,3.1,0,4.3l8.7,8.7h-12.4c-1.7,0-3,1.4-3,3s1.4,3,3,3h12.4l-4.1,4c-1.2,1.2-1.2,3.1,0,4.3h0c1.2,1.2,3.1,1.2,4.3,0l4.1-4v12.4c0,1.7,1.4,3,3,3s3-1.3,3-3v-12.3l4,4c1.2,1.2,3.1,1.2,4.3,0h0c1.2-1.2,1.2-3.1,0-4.3l-4-4h12.4c1.7,0,3-1.4,3-3s-1.3-3-3-3Z"/>
  </g>
</svg>