<?xml version="1.0" encoding="UTF-8"?>
<svg id="Capa_2" data-name="Capa 2" xmlns="http://www.w3.org/2000/svg" viewBox="0 0 46.47 46.47">
  <defs>
    <style>
      .cls-1 {
        fill: #0f9;
      }
    </style>
  </defs>
  <g id="Capa_1-2" data-name="Capa 1">
    <path class="cls-1" d="M43.37,20.14h-12.67l8.96-8.96c1.21-1.21,1.21-3.17,0-4.37h0c-1.21-1.21-3.17-1.21-4.37,0l-8.96,8.96V3.09c0-1.71-1.38-3.09-3.09-3.09h0c-1.71,0-3.09,1.38-3.09,3.09v12.67L11.18,6.8c-1.21-1.21-3.17-1.21-4.37,0h0c-1.21,1.21-1.21,3.17,0,4.37l8.96,8.96H3.09c-1.71,0-3.09,1.38-3.09,3.09s1.38,3.09,3.09,3.09h12.67l-4.15,4.15c-1.21,1.21-1.21,3.17,0,4.37h0c1.21,1.21,3.17,1.21,4.37,0l4.15-4.15v12.68c0,1.71,1.38,3.09,3.09,3.09s3.09-1.38,3.09-3.09v-12.68l4.15,4.15c1.21,1.21,3.17,1.21,4.37,0h0c1.21-1.21,1.21-3.17,0-4.37l-4.15-4.15h12.67c1.71,0,3.09-1.38,3.09-3.09s-1.38-3.09-3.09-3.09Z"/>
  </g>
</svg>