<?xml version="1.0" encoding="UTF-8"?>
<svg id="Capa_2" data-name="Capa 2" xmlns="http://www.w3.org/2000/svg" viewBox="0 0 259.4 46.47">
  <defs>
    <style>
      .cls-1 {
        fill: #0f9;
      }

      .cls-2 {
        fill: #fff;
      }
    </style>
  </defs>
  <g id="Capa_1-2" data-name="Capa 1">
    <g>
      <g>
        <path class="cls-2" d="M52.35,10.08c1.41,0,2.34.7,2.81,2.11l4.74,9.9h.09l5.89-11.69,1.9-.32h.56c1.48,0,2.45.7,2.9,2.11v.09c-.1.41-3.7,7.77-10.81,22.08-3.07,5.66-4.85,8.83-5.36,9.49-.61.39-1.18.59-1.73.59-1.87-.16-2.81-.95-2.81-2.37.39-1.13,2.26-4.7,5.62-10.69l.91-1.82c-5.62-11.11-8.43-16.76-8.43-16.96v-.21c0-1.31,1.02-2.08,3.07-2.31h.64Z"/>
        <path class="cls-2" d="M74.22,9.99h12.8c5.52,0,9.14,2.2,10.84,6.59.29.94.44,1.85.44,2.72v9.08c0,2.71-1.43,4.57-4.28,5.56l-1.2.12h-11.36c-2.66,0-4.84-1.28-6.56-3.84-.59-1-.88-1.9-.88-2.72v-1.08c0-3.63,2-5.96,6-7l1.44-.12h11.04c0-1.72-.95-2.92-2.84-3.6-.86-.16-2.06-.23-3.6-.23h-7c-2.05,0-3.66-1.09-4.83-3.28l-.21-1.32v-.64l.21-.23ZM79.58,26.74c0,1.15,1.03,1.77,3.08,1.85h8.2c1.09-.1,1.64-.64,1.64-1.64v-2.17h-10.6c-1.31,0-2.08.58-2.31,1.73v.23Z"/>
        <path class="cls-2" d="M113.05,9.9h9.66l.15.15v25.66c0,2.48-.46,4.23-1.38,5.24-1.44,1.66-2.97,2.49-4.57,2.49h-15.38l-.15-.15c0-2.54,1.25-4.3,3.75-5.3.55-.2,1.23-.29,2.05-.29h8.35c.92,0,1.44-.41,1.58-1.23v-2.4h-5.51c-2.62,0-5.24-1.2-7.88-3.6-2.25-2.52-3.37-5.35-3.37-8.49,0-3.59,1.49-6.7,4.48-9.31,2.32-1.84,5.06-2.75,8.2-2.75ZM106.11,22.06c0,2.42,1.19,4.3,3.57,5.65.88.41,1.66.61,2.34.61h5.1v-12.68h-5.1c-1.78,0-3.39.92-4.83,2.75-.72,1.09-1.08,2.31-1.08,3.66Z"/>
        <path class="cls-2" d="M125.84,9.99h12.8c5.52,0,9.14,2.2,10.84,6.59.29.94.44,1.85.44,2.72v9.08c0,2.71-1.43,4.57-4.28,5.56l-1.2.12h-11.36c-2.66,0-4.84-1.28-6.56-3.84-.59-1-.88-1.9-.88-2.72v-1.08c0-3.63,2-5.96,6-7l1.44-.12h11.04c0-1.72-.95-2.92-2.84-3.6-.86-.16-2.06-.23-3.6-.23h-7c-2.05,0-3.66-1.09-4.83-3.28l-.21-1.32v-.64l.21-.23ZM131.2,26.74c0,1.15,1.03,1.77,3.08,1.85h8.2c1.09-.1,1.64-.64,1.64-1.64v-2.17h-10.6c-1.31,0-2.08.58-2.31,1.73v.23Z"/>
        <path class="cls-2" d="M153.89.53c2.56,0,4.34,1.3,5.36,3.9.16.49.23.98.23,1.46v3.78h5.56c2.67,0,5.35,1.23,8.02,3.69,2.23,2.46,3.34,5.39,3.34,8.79v11.77l-.15.15h-5.51l-.15-.15v-11.98c0-3.01-1.55-5.1-4.66-6.27l-1.32-.23h-5.15v18.48l-.15.15h-5.51l-.15-.15V.68c0-.1.07-.15.2-.15Z"/>
        <path class="cls-2" d="M180.41,9.99h12.8c5.52,0,9.14,2.2,10.84,6.59.29.94.44,1.85.44,2.72v9.08c0,2.71-1.43,4.57-4.28,5.56l-1.2.12h-11.36c-2.66,0-4.84-1.28-6.56-3.84-.59-1-.88-1.9-.88-2.72v-1.08c0-3.63,2-5.96,6-7l1.44-.12h11.04c0-1.72-.95-2.92-2.84-3.6-.86-.16-2.06-.23-3.6-.23h-7c-2.05,0-3.66-1.09-4.83-3.28l-.21-1.32v-.64l.21-.23ZM185.77,26.74c0,1.15,1.03,1.77,3.08,1.85h8.2c1.09-.1,1.64-.64,1.64-1.64v-2.17h-10.6c-1.31,0-2.08.58-2.31,1.73v.23Z"/>
        <path class="cls-2" d="M208.31,10.05c2.62,0,4.35,1.27,5.21,3.81l.09.97v6.15c0,3.14.92,5.24,2.75,6.3.94.68,1.95,1.03,3.05,1.03h.41c2.79,0,4.73-1.58,5.83-4.74l.09-1.35v-7.17c0-2.34,1.25-3.94,3.75-4.8l1.73-.18.38.47v11.98c0,4.61-2.46,8.17-7.38,10.69-1.6.59-3.04.88-4.31.88h-.29c-4.92,0-8.61-2.49-11.07-7.47-.53-1.5-.79-2.81-.79-3.92v-12.15c.18-.31.36-.47.56-.47Z"/>
        <path class="cls-2" d="M242.47,10.08h16.08c.51.04.76.26.76.67,0,2.5-1.38,4.19-4.13,5.07l-.94.09h-11.57c-1.09.14-1.64.64-1.64,1.52v.21c0,.9.55,1.41,1.64,1.52h8.02c4.12,0,6.79,1.49,8.02,4.48.45,1.11.67,2.27.67,3.46,0,2.46-1.34,4.53-4.01,6.21-1.04.51-2.09.76-3.16.76h-16.52c-.33-.16-.5-.41-.5-.76,0-2.36,1.25-3.95,3.75-4.77.23-.14.58-.21,1.03-.21h11.3c1.15,0,1.88-.41,2.2-1.23v-.76c-.18-.9-.82-1.35-1.93-1.35h-8.02c-3.98,0-6.66-1.69-8.02-5.07-.25-1.19-.38-2.18-.38-2.96,0-2.6,1.49-4.7,4.48-6.33.98-.37,1.93-.56,2.87-.56Z"/>
      </g>
      <path class="cls-1" d="M43.37,20.14h-12.67l8.96-8.96c1.21-1.21,1.21-3.17,0-4.37h0c-1.21-1.21-3.17-1.21-4.37,0l-8.96,8.96V3.09c0-1.71-1.38-3.09-3.09-3.09h0c-1.71,0-3.09,1.38-3.09,3.09v12.67L11.18,6.8c-1.21-1.21-3.17-1.21-4.37,0h0c-1.21,1.21-1.21,3.17,0,4.37l8.96,8.96H3.09c-1.71,0-3.09,1.38-3.09,3.09s1.38,3.09,3.09,3.09h12.67l-4.15,4.15c-1.21,1.21-1.21,3.17,0,4.37h0c1.21,1.21,3.17,1.21,4.37,0l4.15-4.15v12.68c0,1.71,1.38,3.09,3.09,3.09s3.09-1.38,3.09-3.09v-12.68l4.15,4.15c1.21,1.21,3.17,1.21,4.37,0h0c1.21-1.21,1.21-3.17,0-4.37l-4.15-4.15h12.67c1.71,0,3.09-1.38,3.09-3.09s-1.38-3.09-3.09-3.09Z"/>
    </g>
  </g>
</svg>