<?xml version="1.0" encoding="UTF-8"?>
<svg id="Capa_1" xmlns="http://www.w3.org/2000/svg" version="1.1" viewBox="0 0 800 800">
  <!-- Generator: Adobe Illustrator 29.2.1, SVG Export Plug-In . SVG Version: 2.1.0 Build 116)  -->
  <defs>
    <style>
      .st0 {
        fill: #fff;
        fill-rule: evenodd;
      }
    </style>
  </defs>
  <path class="st0" d="M466.7,166.7c-18.4,0-33.3,14.9-33.3,33.3s3.7,17.5,9.8,23.6c6.1,6.1,14.4,9.8,23.6,9.8,18.4,0,33.3-14.9,33.3-33.3s-14.9-33.3-33.3-33.3ZM366.7,200c0-55.2,44.8-100,100-100s100,44.8,100,100-44.8,100-100,100-30.1-3.5-43.1-9.8l-66.6,66.6c6.2,13.1,9.8,27.7,9.8,43.1s-3.5,30.1-9.8,43.1l66.6,66.6c13.1-6.2,27.7-9.8,43.1-9.8,55.2,0,100,44.8,100,100s-44.8,100-100,100-100-44.8-100-100,3.5-30.1,9.8-43.1l-66.6-66.6c-13.1,6.2-27.7,9.8-43.1,9.8-55.2,0-100-44.8-100-100s44.8-100,100-100,30.1,3.5,43.1,9.8l66.6-66.6c-6.2-13.1-9.8-27.7-9.8-43.1ZM266.7,366.7c-18.4,0-33.3,14.9-33.3,33.3s14.9,33.3,33.3,33.3,17.5-3.7,23.6-9.8c6.1-6.1,9.8-14.4,9.8-23.6s-3.7-17.5-9.8-23.6c-6.1-6.1-14.4-9.8-23.6-9.8ZM466.7,566.7c-9.2,0-17.5,3.7-23.6,9.8s-9.8,14.4-9.8,23.6c0,18.4,14.9,33.3,33.3,33.3s33.3-14.9,33.3-33.3-14.9-33.3-33.3-33.3Z"/>
</svg>