<?xml version="1.0" encoding="UTF-8"?>
<svg id="Capa_1" xmlns="http://www.w3.org/2000/svg" version="1.1" viewBox="0 0 800 800">
  <!-- Generator: Adobe Illustrator 29.2.1, SVG Export Plug-In . SVG Version: 2.1.0 Build 116)  -->
  <defs>
    <style>
      .st0 {
        fill: #fff;
      }
    </style>
  </defs>
  <path class="st0" d="M633.3,133.3H166.7c-55.1,0-100,44.9-100,100v333.3c0,55.1,44.9,100,100,100h466.7c55.1,0,100-44.9,100-100V233.3c0-55.1-44.9-100-100-100ZM666.7,566.7c0,18.4-15,33.3-33.3,33.3H166.7c-18.4,0-33.3-15-33.3-33.3V233.3c0-18.4,15-33.3,33.3-33.3h466.7c18.4,0,33.3,15,33.3,33.3v333.3Z"/>
  <path class="st0" d="M300,266.7c-55.1,0-100,44.9-100,100v133.3h66.7v-33.3h66.7v33.3h66.7v-133.3c0-55.1-44.9-100-100-100ZM266.7,400v-33.3c0-18.4,15-33.3,33.3-33.3s33.3,15,33.3,33.3v33.3h-66.7Z"/>
  <path class="st0" d="M533.3,366.7h-16.7c-24.9,0-47,9.5-62.4,26.8-13.5,15.2-20.9,35.2-20.9,56.5s7.4,41.3,20.9,56.5c15.4,17.3,37.5,26.8,62.4,26.8h50v-.3h33.3v-233h-66.7v66.7ZM504.1,462.2c-2.6-2.9-4.1-7.4-4.1-12.2s1.5-9.4,4.1-12.2c1-1.1,3.9-4.4,12.6-4.4h16.7v33.3h-16.7c-8.6,0-11.6-3.3-12.6-4.4Z"/>
</svg>