<?xml version="1.0" encoding="UTF-8"?>
<svg id="Capa_1" xmlns="http://www.w3.org/2000/svg" version="1.1" viewBox="0 0 800 800">
  <!-- Generator: Adobe Illustrator 29.2.1, SVG Export Plug-In . SVG Version: 2.1.0 Build 116)  -->
  <defs>
    <style>
      .st0 {
        fill: #fff;
      }
    </style>
  </defs>
  <path class="st0" d="M548.3,50c-53.5-.5-104.9,20.2-143.3,57.5l-.5.5-16.3,16.3c-13,13-13,34.1,0,47.1l23.6,23.6c13,13,34.1,13,47.1,0l16-16c19.5-18.9,45.5-29.2,72.4-29,27,.2,52.9,11.2,72.2,30.5,19.2,19.4,30.2,45.6,30.4,73.2.2,27.4-10.2,53.7-28.9,73.4l-103.7,104.4c-10.5,10.6-23.1,18.8-37,24-13.9,5.2-28.7,7.4-43.4,6.3-14.8-1.1-29.1-5.3-42.1-12.5-3.3-1.8-6.4-3.8-9.5-5.9-15.1-10.6-35.8-14.3-50.5-3.3l-26.8,19.9c-14.8,11-18,32.1-4.8,44.9,12.9,12.5,27.5,23.3,43.4,32,25.6,14.1,54,22.5,83.1,24.6,29.2,2.1,58.4-2.1,85.8-12.4,27.4-10.3,52.2-26.4,72.8-47.1l104-104.7.6-.6c37-38.6,57.5-90.2,57-143.8-.5-53.5-21.8-104.8-59.5-142.8-37.7-38-88.8-59.6-142.2-60Z"/>
  <path class="st0" d="M370.3,238.6c-29.2-2.1-58.4,2.1-85.8,12.4-27.4,10.3-52.2,26.4-72.8,47.1l-104,104.7-.6.6c-37,38.6-57.5,90.2-57,143.8.5,53.5,21.8,104.8,59.5,142.8,37.7,38,88.8,59.6,142.2,60,53.5.5,104.9-20.2,143.3-57.5l.5-.5,16.3-16.3c13-13,13-34.1,0-47.1l-23.6-23.6c-13-13-34.1-13-47.1,0l-16,16c-19.5,18.9-45.5,29.2-72.4,29-27-.2-52.9-11.2-72.2-30.5-19.2-19.4-30.2-45.6-30.4-73.2-.2-27.4,10.2-53.7,28.9-73.4l103.7-104.4c10.5-10.6,23.1-18.8,37-24,13.9-5.2,28.7-7.4,43.4-6.3,14.8,1.1,29.1,5.3,42.1,12.5,3.3,1.8,6.4,3.8,9.5,5.9,15.1,10.6,35.8,14.2,50.5,3.3l26.8-19.9c14.8-11,18-32.1,4.8-44.9-13-12.5-27.5-23.3-43.4-32-25.6-14.1-54-22.5-83.1-24.6Z"/>
</svg>