<?xml version="1.0" encoding="UTF-8"?>
<svg id="Icons" xmlns="http://www.w3.org/2000/svg" xmlns:xlink="http://www.w3.org/1999/xlink" version="1.1" viewBox="0 0 32 32">
  <!-- Generator: Adobe Illustrator 29.2.1, SVG Export Plug-In . SVG Version: 2.1.0 Build 116)  -->
  <defs>
    <style>
      .st0 {
        fill: #fff;
      }
    </style>
  </defs>
  <path class="st0" d="M3,3v18h26V3H3ZM27,19H5V5h22v14Z"/>
  <path class="st0" d="M13,7v10l6.7-5-6.7-5ZM15,11l1.3,1-1.3,1v-2Z"/>
  <path class="st0" d="M10,23c-1.3,0-2.4.8-2.8,2h-3.2v2h3.2c.4,1.2,1.5,2,2.8,2s3-1.3,3-3-1.3-3-3-3ZM10,27c-.6,0-1-.4-1-1s.4-1,1-1,1,.4,1,1-.4,1-1,1Z"/>
  <rect class="st0" x="15" y="25" width="13" height="2"/>
</svg>