<?xml version="1.0" encoding="UTF-8"?>
<svg id="Layer_1" xmlns="http://www.w3.org/2000/svg" xmlns:xlink="http://www.w3.org/1999/xlink" version="1.1" viewBox="0 0 32 32">
  <!-- Generator: Adobe Illustrator 29.2.1, SVG Export Plug-In . SVG Version: 2.1.0 Build 116)  -->
  <defs>
    <style>
      .st0 {
        fill: #fff;
      }
    </style>
  </defs>
  <path class="st0" d="M8,29c-1.3,0-2.6-.5-3.6-1.5-1-1-1.5-2.2-1.5-3.6s.5-2.6,1.5-3.6l8.5-8.5c0-.3,0-.6,0-.9,0-4.5,3.5-8,8-8s2.6.3,3.7.9l1.2.6-5.2,5.2,1.6,1.6,5.2-5.2.6,1.2c.6,1.1.9,2.4.9,3.7,0,4.5-3.5,8-8,8s-.6,0-.9,0l-8.5,8.5c-1,1-2.2,1.5-3.6,1.5ZM21,5c-3.4,0-6,2.6-6,6s0,.7,0,1v.5c.1,0-9.2,9.3-9.2,9.3-.6.6-.9,1.3-.9,2.1s.3,1.6.9,2.1c1.2,1.2,3.1,1.2,4.3,0l9.3-9.3h.5c.3.2.6.2,1,.2,3.4,0,6-2.6,6-6s0-1-.2-1.4l-4.6,4.6-4.4-4.4,4.6-4.6c-.5-.1-.9-.2-1.4-.2Z"/>
</svg>