<?xml version="1.0" encoding="UTF-8"?>
<svg id="Capa_1" xmlns="http://www.w3.org/2000/svg" xmlns:xlink="http://www.w3.org/1999/xlink" version="1.1" viewBox="0 0 800 800">
  <!-- Generator: Adobe Illustrator 29.2.1, SVG Export Plug-In . SVG Version: 2.1.0 Build 116)  -->
  <defs>
    <style>
      .st0 {
        fill: #fff;
        fill-rule: evenodd;
      }
    </style>
  </defs>
  <g id="Page-1">
    <g id="Dribbble-Light-Preview">
      <g id="icons">
        <path id="file_x5F_url-_x5B__x23_1759_x5D_" class="st0" d="M789,241.8L571,12.4C563.4,4.5,553,0,542,0H80C35.8,0,0,35.8,0,80v280c0,22.1,17.9,40,40,40s40-17.9,40-40V120c0-22.1,17.9-40,40-40h360v160c0,44.2,35.8,80,80,80h160v40c0,22.1,17.9,40,40,40s40-17.9,40-40v-90.7c0-10.2-3.9-20.1-11-27.6M440,600c0-22.1-17.9-40-40-40h-40v80h40c22.1,0,40-17.9,40-40M469,698l25.2,50.5c11.8,23.7-5.4,51.5-31.8,51.5h-.4c-13.5,0-25.8-7.6-31.8-19.7l-30.2-60.3h-40v44.4c0,19.7-15.9,35.6-35.6,35.6h-8.8c-19.6,0-35.6-15.9-35.6-35.6v-248.8c0-19.6,16-35.6,35.6-35.6h78.5c62.5,0,118.8,45.2,125.2,107.4,4.7,45.7-16.4,86.6-50.4,110.6M760,720h-100c-11,0-20-9-20-20v-180c0-22.1-17.9-40-40-40s-40,17.9-40,40v240c0,22.1,17.9,40,40,40h160c22.1,0,40-17.9,40-40s-17.9-40-40-40M240,515.6v164.4c0,68.4-57.2,123.5-126.4,119.8C48.7,796.5,0,738.2,0,673.2v-157.6c0-19.6,16-35.6,35.6-35.6h8.8c19.7,0,35.6,16,35.6,35.6v164.4c0,22.1,17.9,40,40,40s40-17.9,40-40v-164.4c0-19.6,16-35.6,35.6-35.6h8.8c19.7,0,35.6,16,35.6,35.6"/>
      </g>
    </g>
  </g>
</svg>